# xmcd
# Track frame offsets:
# 150
# 16965
# 39771
# 63520
# 94885
# 115382
# 173375
# 190087
# 221413
#
# Disc length: 3506 seconds
# Revision: 1
# Processed by: cddbd v1.5.2PL0 Copyright (c) Steve Scherf et al.
# Submitted via: VisiTrax 2.10.0.248 - For more info visit www.synapsa.com
#
DISCID=6c0db009
DTITLE=Maurizio Giammarco - Live at Casa del Jazz (07-121), Roma 1,2,3.04.200
DTITLE=7
DYEAR=2007
DGENRE=Jazz
TTITLE0=Senza fine
TTITLE1=Lover
TTITLE2=Non gioco più
TTITLE3=There is no Rock Groove
TTITLE4=La conversazione
TTITLE5=Feste popolari - Sardegna
TTITLE6=Sabato notte
TTITLE7=Diminitude
TTITLE8=Riverberi
EXTD=Parco della musica Jazz Orchestra \nSpecial guest Irene Grandi and  Simo
EXTD=na Bencini\nMaurizio Giammarco - direzione, sassofone tenore e sopran
EXTD=o\nGianni Oddi - sassofono\nDaniele Tittarelli - sassofono\nGianni Sav
EXTD=elli - sassofono\nMarco Conti - sassofono\nElvio Ghigliordini  - sasso
EXTD=fono\nFernando Brusco - tromba\nClaudio Corvini - tromba\nGiancarlo Ci
EXTD=minelli - tromba\nAldo Basi - tromba\nMario Corvini - trombone\nMassim
EXTD=o Pirone - trombone\nLuca Giustozzi - trombone\nRoberto Pecorelli - tr
EXTD=ombone\nPino Iodice - piano\nLuca Pirozzi - contrabbasso, basso elettr
EXTD=ico\nPietro Iodice - batteria
EXTT0=
EXTT1=
EXTT2=
EXTT3=
EXTT4=
EXTT5=
EXTT6=
EXTT7=
EXTT8=
PLAYORDER=
